<?xml version="1.0"?>
<svg version="1.1" xmlns="http://www.w3.org/2000/svg" width="205" height="52" style=""><path fill="#fff" d="M19.592,36.724l0.42,2.352s1.12,0.588,2.744,0.588c1.792,0,3.388-0.784,3.388-2.268c0-3.276-9.464-1.82-9.464-8.736c0-3.864,3.052-5.936,7.112-5.936c3.164,0,6.16,1.12,6.16,1.12l-0.14,5.096l-2.576,0l-0.7-2.38s-1.26-0.42-2.464-0.42c-1.988,0-2.968,0.868-2.968,1.988c0,3.248,9.436,1.96,9.436,8.54c0,4.2-3.248,6.496-7.56,6.496c-3.164,0-6.244-1.064-6.244-1.064l0-5.376l2.856,0z M44.41428,42.8l-0.504-1.82s-2.156,2.1-4.536,2.1c-2.716,0-4.368-1.596-4.368-4.396c0-3.304,2.492-4.62,6.748-4.62l1.96,0l0-1.54c0-1.428-0.756-2.044-2.156-2.044c-1.428,0-2.464,0.42-2.464,0.42l-0.42,1.764l-2.52,0l-0.196-4.144s3.388-1.12,6.076-1.12c4.256,0,5.88,1.484,5.88,5.544l0,6.916l2.1,0.504l0,2.24z M43.71428,36.444l-1.596,0c-2.184,0-3.052,0.56-3.052,1.82c0,1.064,0.588,1.68,1.652,1.68c1.484,0,2.996-1.624,2.996-1.624l0-1.876z M69.68456,49.24l-8.96,0l0-2.24l2.66-0.7l0-4.732s-1.848,1.512-4.004,1.512c-3.92,0-5.74-2.94-5.74-7.42c0-5.096,2.744-8.26,8.12-8.26c3.08,0,5.824,0.672,5.824,0.672l0,18.228l2.1,0.7l0,2.24z M63.38456,38.46l0-7.616s-0.784-0.224-2.184-0.224c-2.324,0-3.22,1.96-3.22,4.76s0.784,4.34,2.772,4.34c1.736,0,2.632-1.26,2.632-1.26z M71.77084,30.06l0-2.24l6.44-0.14l0,9.66c0,1.54,0.448,2.24,1.708,2.24c1.82,0,3.164-1.512,3.164-1.512l0-7.308l-2.24-0.7l0-2.24l6.44-0.14l0,12.18l2.24,0.56l0,2.184l-5.908,0.196l-0.28-1.96s-2.24,2.24-4.9,2.24c-2.8,0-4.424-1.876-4.424-5.012l0-7.308z M94.74512,23.06c0-1.596,1.148-2.52,2.408-2.52c1.456,0,2.352,0.756,2.352,2.52c0,1.652-1.204,2.548-2.352,2.548c-1.512,0-2.408-0.896-2.408-2.548z M99.44912,39.86l1.96,0.7l0,2.24l-8.4,0l0-2.24l2.24-0.7l0-9.1l-2.24-0.7l0-2.24l6.44-0.14l0,12.18z M110.6354,21.1l0,7.784c0.476-0.364,1.876-1.484,4.004-1.484c3.752,0,5.74,2.716,5.74,7.42c0,5.264-2.744,8.316-8.12,8.316c-3.08,0-5.824-0.616-5.824-0.616l0-18.396l-2.1-0.56l0-2.24z M110.6354,32.02l0,7.532s0.644,0.224,2.072,0.224c2.436,0,3.332-1.848,3.332-4.676c0-2.8-0.784-4.34-2.744-4.34c-1.68,0-2.66,1.26-2.66,1.26z M133.23196,42.8l0-2.38l2.1-0.84l0-13.16l-2.1-0.84l0-2.38l6.44-0.14l7.84,0l0,5.32l-2.604,0l-0.7-1.96l-4.536,0l0,4.9l5.796,0l0,3.08l-5.796,0l0,5.18l2.576,0.84l0,2.38l-9.016,0z M157.01824,27.68l0.252,1.932s2.016-2.212,3.892-2.212c1.54,0,2.604,0.504,2.604,0.504l-0.224,5.376l-2.52,0l-0.42-2.38c-1.624,0-3.024,1.568-3.024,1.568l0,7.392l2.8,0.7l0,2.24l-9.24,0l0-2.24l2.24-0.7l0-9.1l-2.24-0.7l0-2.24z M176.38052,42.8l-0.504-1.82s-2.156,2.1-4.536,2.1c-2.716,0-4.368-1.596-4.368-4.396c0-3.304,2.492-4.62,6.748-4.62l1.96,0l0-1.54c0-1.428-0.756-2.044-2.156-2.044c-1.428,0-2.464,0.42-2.464,0.42l-0.42,1.764l-2.52,0l-0.196-4.144s3.388-1.12,6.076-1.12c4.256,0,5.88,1.484,5.88,5.544l0,6.916l2.1,0.504l0,2.24z M175.68052,36.444l-1.596,0c-2.184,0-3.052,0.56-3.052,1.82c0,1.064,0.588,1.68,1.652,1.68c1.484,0,2.996-1.624,2.996-1.624l0-1.876z M197.8428,30.284l-7,9.436l4.088,0l0.476-2.38l2.52,0l0,5.46l-12.18,0l0-2.576l7.112-9.464l-3.836,0l-0.42,2.044l-2.52,0l0-5.124l11.76,0l0,2.604z"/><path fill="#" d=""/></svg>
